<mxfile host="app.diagrams.net" modified="2023-04-07T12:38:01.614Z" agent="Mozilla/5.0 (Windows NT 10.0; Win64; x64) AppleWebKit/537.36 (KHTML, like Gecko) Chrome/111.0.0.0 Safari/537.36" etag="trq8oYyRoSXljRcxo-JE" version="21.1.5" type="github">
  <diagram id="R2lEEEUBdFMjLlhIrx00" name="Page-1">
    <mxGraphModel dx="1050" dy="549" grid="1" gridSize="10" guides="1" tooltips="1" connect="1" arrows="1" fold="1" page="1" pageScale="1" pageWidth="850" pageHeight="1100" math="0" shadow="0" extFonts="Permanent Marker^https://fonts.googleapis.com/css?family=Permanent+Marker">
      <root>
        <mxCell id="0" />
        <mxCell id="1" parent="0" />
        <mxCell id="n0ZqEsx-Wv2Kl2IQE_g2-4" value="" style="edgeStyle=orthogonalEdgeStyle;rounded=0;orthogonalLoop=1;jettySize=auto;html=1;endArrow=none;endFill=0;" edge="1" parent="1" source="n0ZqEsx-Wv2Kl2IQE_g2-1" target="n0ZqEsx-Wv2Kl2IQE_g2-3">
          <mxGeometry relative="1" as="geometry" />
        </mxCell>
        <mxCell id="n0ZqEsx-Wv2Kl2IQE_g2-1" value="유저" style="whiteSpace=wrap;html=1;align=center;aspect=fixed;" vertex="1" parent="1">
          <mxGeometry x="350" y="150" width="90" height="30" as="geometry" />
        </mxCell>
        <mxCell id="n0ZqEsx-Wv2Kl2IQE_g2-7" value="" style="edgeStyle=orthogonalEdgeStyle;shape=connector;rounded=0;orthogonalLoop=1;jettySize=auto;html=1;labelBackgroundColor=default;strokeColor=default;fontFamily=Helvetica;fontSize=11;fontColor=default;endArrow=none;endFill=0;" edge="1" parent="1" source="n0ZqEsx-Wv2Kl2IQE_g2-3" target="n0ZqEsx-Wv2Kl2IQE_g2-6">
          <mxGeometry relative="1" as="geometry" />
        </mxCell>
        <mxCell id="n0ZqEsx-Wv2Kl2IQE_g2-3" value="소유" style="rhombus;whiteSpace=wrap;html=1;aspect=fixed;" vertex="1" parent="1">
          <mxGeometry x="480" y="150" width="90" height="30" as="geometry" />
        </mxCell>
        <mxCell id="n0ZqEsx-Wv2Kl2IQE_g2-6" value="쿠키" style="whiteSpace=wrap;html=1;" vertex="1" parent="1">
          <mxGeometry x="620" y="150" width="90" height="30" as="geometry" />
        </mxCell>
      </root>
    </mxGraphModel>
  </diagram>
</mxfile>
